<?xml version="1.0" encoding="UTF-8"?>
<svg id="a" xmlns="http://www.w3.org/2000/svg" xmlns:xlink="http://www.w3.org/1999/xlink" viewBox="0 0 606.94 160.3">
<defs>
<style>.u{fill:#fff;}.k{fill:#444445;}.l{fill:url(#c);}.m{fill:url(#f);}.n{fill:url(#g);}.o{fill:url(#b);}.p{fill:url(#i);}.q{fill:url(#h);}.r{fill:url(#d);}.s{fill:url(#e);}.t{fill:url(#j);}</style>
<linearGradient id="b" x1="77.02" y1="27.27" x2="85.26" y2="166.19" gradientTransform="matrix(1, 0, 0, 1, 0, 0)" gradientUnits="userSpaceOnUse"><stop offset="0" stop-color="#009444"/><stop offset="1" stop-color="#8dc63f"/></linearGradient>
<linearGradient id="c" x1="193.96" y1="58.06" x2="613.35" y2="109.52" xlink:href="#b"/>
<linearGradient id="d" x1="194.68" y1="52.22" x2="614.07" y2="103.68" xlink:href="#b"/>
<linearGradient id="e" x1="195.47" y1="45.78" x2="614.86" y2="97.24" xlink:href="#b"/>
<linearGradient id="f" x1="196.53" y1="37.08" x2="615.93" y2="88.55" xlink:href="#b"/>
<linearGradient id="g" x1="197.19" y1="31.73" x2="616.58" y2="83.2" xlink:href="#b"/>
<linearGradient id="h" x1="455.81" y1="60.73" x2="514.3" y2="60.73" xlink:href="#b"/>
<linearGradient id="i" x1="198.62" y1="20.05" x2="618.02" y2="71.51" xlink:href="#b"/>
<linearGradient id="j" x1="199.55" y1="12.47" x2="618.95" y2="63.93" xlink:href="#b"/></defs
><path class="o" d="M111.46,6.34l-.04-.02h-.04l-.03-.02c-.6-.25-1.2-.5-1.81-.74-.3-.12-.6-.23-.9-.35l-.47-.18-.46-.17c-2.2-.8-4.41-1.5-6.57-2.08-.31-.09-.63-.17-.95-.25-1.04-.27-2.11-.52-3.17-.74-.22-.05-.47-.1-.72-.15-2.39-.49-4.86-.88-7.33-1.15-.43-.05-.88-.09-1.33-.14-2.47-.23-4.99-.35-7.48-.35-2.91,0-5.81,.15-8.63,.46-.44,.05-.87,.1-1.31,.15-1.4,.17-2.85,.39-4.3,.65-1.08,.2-2.03,.39-2.9,.58-.65,.14-1.29,.29-1.94,.45-.65,.15-1.3,.32-1.92,.5-.31,.08-.63,.17-.96,.27-.3,.08-.62,.17-.94,.27l-.42,.13c-.2,.06-.41,.12-.61,.18-.6,.19-1.2,.38-1.79,.58h-.02l-.07,.03c-.49,.17-.98,.34-1.47,.51-.86,.31-1.77,.66-2.72,1.05h-.01l-.2,.08c-.92,.38-1.87,.79-2.82,1.21C18.49,20.07,0,48.75,0,80.16c0,10.54,2.02,20.79,5.99,30.46l.61,1.49,1.16-1.11c5.69-5.43,38.54-36.76,46.12-43.99l6.14,6.29,5.19,5.32c-12,11.63-44.54,43.18-49.34,47.83l-.69,.67,.57,.77c7.24,9.76,16.76,17.87,27.52,23.45,11.27,5.85,23.47,8.86,36.25,8.96,.51,0,1.01-.01,1.51-.02,24.95-.35,48.87-13.2,64-34.37l.75-1.04-1.14-.58c-13.34-6.74-25.32-9.74-38.86-9.74-2.34,0-4.78,.09-7.24,.28-11.23,.56-27.13,3.66-38.95,15.22l-2.98,2.75-1.06,.98,1.23,.76,3.38,2.09c4.97,3.02,10.71,4.67,18.06,5.2,.92,.07,1.87,.11,2.81,.11,8.14,0,16.82-2.7,25.8-8.01l.92-.54-.52-.93-.62-1.12-.52-.94-.95,.49c-5.15,2.67-11.59,4.08-18.63,4.08-2.48,0-5.04-.17-7.59-.51-3.14-.38-6.1-1.08-8.69-2.04,3.29-2.18,6.84-3.89,10.57-5.09,5.2-1.69,11.16-2.62,18.22-2.84,1.3-.06,2.6-.09,3.87-.09,8.97,0,17.47,1.49,25.3,4.44-12.42,12.16-29.68,19.1-47.64,19.1-9.89,0-19.64-2.2-28.21-6.36-6.93-3.26-13.21-7.67-18.69-13.11L103.9,60.36l47.99,52.02,1.14,1.24,.67-1.55c4.38-10.08,6.61-20.82,6.61-31.92,0-32.23-19.17-61.2-48.85-73.81Zm-7.01,34.25l-.81,.78-28.51,27.63c-6.86-7.04-20.14-20.64-20.14-20.64l-.77-.78-.79,.76c-2.06,2-32.34,30.85-39.75,37.91-.16-1.9-.24-3.82-.24-5.74C13.46,43.74,43.38,13.81,80.15,13.81s66.7,29.92,66.7,66.7c0,1.92-.08,3.85-.24,5.77l-41.38-44.87-.76-.83Z"/><g><g>
<path class="u" d="M196.63,125.86l13.19-29.82h5.11l13.33,29.82h-5.56l-4.11-9.17-12.34-.04-4.07,9.22h-5.56Zm11.48-13.37h8.63l-4.34-9.67-4.29,9.67Z"/>
<path class="u" d="M250.17,125.86v-29.82h10.84c8.09,0,15.95,4.56,15.95,14.59,0,9.35-7.28,15.23-16.18,15.23h-10.62Zm5.33-4.61h5.38c6.64,0,10.71-4.65,10.75-10.35,0-6.05-3.93-10.26-10.48-10.26h-5.65v20.61Z"/>
<path class="u" d="M306.28,125.86l-11.7-29.82h5.51l8.81,22.82,9.17-22.82h5.51l-12.25,29.82h-5.06Z"/>
<path class="u" d="M345.5,125.76v-29.73h20.65v5.29h-15.36v7.23h13.65v4.61h-13.65v7.32h15.27v5.29h-20.56Z"/>
<path class="u" d="M388.05,125.86v-29.82h4.7l14.19,20.97v-20.97h5.29v29.82h-4.65l-14.23-20.74v20.74h-5.29Z"/>
<path class="u" d="M443.36,125.86l.09-25.21h-9.26v-4.61h23.81v4.61h-9.26l-.09,25.21h-5.29Z"/>
<path class="u" d="M479.95,114.56v-18.53h5.29v18.07c0,4.38,2.35,7.59,7,7.59s6.87-3.21,6.87-7.59v-18.07h5.29v18.53c0,6.91-4.74,11.75-12.2,11.75s-12.24-4.74-12.24-11.75Z"/>
<path class="u" d="M526.35,125.86v-29.82h11.66c8.95,0,11.12,5.06,11.12,9.35s-1.81,8.18-7.32,8.86l-1.63,.04,7.18,11.57h-5.92l-7.05-11.57h-2.76v11.57h-5.29Zm5.29-15.95h6.37c3.75,0,5.78-1.36,5.78-4.52,0-2.67-1.54-4.74-5.83-4.74h-6.33v9.26Z"/>
<path class="u" d="M571.03,125.76v-29.73h20.65v5.29h-15.36v7.23h13.65v4.61h-13.65v7.32h15.27v5.29h-20.56Z"/></g>
<g>
<g>
<path class="l" d="M196.63,86.61V34.78h37.59v12.82h-24.69v7.47h21.55v11.09h-21.55v7.55h24.62v12.9h-37.51Z"/><path class="r" d="M236.58,60.73c.16-16.52,12.98-26.74,27.53-26.74,10.07,0,18.71,4.72,23.2,13.21l-11.09,5.11c-2.44-4.48-6.76-7.24-12.19-7.24-8.18,0-14.55,6.29-14.55,15.65,.08,9.2,6.21,15.65,14.55,15.65,5.74,0,10.22-3.07,12.5-8.1l11.25,4.64c-4.17,9.04-12.98,14.55-23.75,14.55-14.71,0-27.6-10.54-27.45-26.74Z"/><path class="s" d="M289.75,60.81c.16-16.59,12.98-26.82,27.6-26.82s27.13,10.62,27.05,26.82c-.16,15.73-11.95,26.66-27.13,26.66s-27.68-10.54-27.53-26.66Zm41.76,0c-.08-9.44-5.98-15.73-14.23-15.73s-14.63,6.29-14.63,15.73c.08,9.12,6.29,15.57,14.63,15.57s14.15-6.37,14.23-15.57Z"/></g><path class="m" d="M368.58,86.68V34.78h12.9v20.37h15.57v-20.37h12.9v51.9h-12.9v-20.45h-15.57v20.45h-12.9Z"/><path class="n" d="M414.42,86.61V34.78h37.59v12.82h-24.69v7.47h21.55v11.09h-21.55v7.55h24.61v12.9h-37.51Z"/><polygon class="q" points="514.3 86.68 499.49 86.68 493.95 76.55 486.08 75.23 479.7 71.02 480.4 63.85 494.79 60.98 481.37 53.89 481.46 53.07 480.36 52.93 477.31 70.99 465.18 85.06 455.81 86.61 478.82 34.78 491.08 34.78 514.3 86.68"/><path class="p" d="M518.07,86.68V34.78h21.7c16.83,0,21,9.12,21,17.14s-2.83,14.55-11.48,16.44l-1.65,.08,10.77,18.24h-14.31l-10.46-18.24h-2.75v18.24h-12.82Zm12.82-28.78h8.89c5.19,0,8.1-1.65,8.1-5.98,0-3.93-2.52-6.05-8.18-6.05h-8.81v12.03Z"/>
<path class="t" d="M578.86,86.68V45.87h-15.1v-11.09h43.17v11.09h-15.18l-.08,40.81h-12.82Z"/><rect class="k" x="349.28" y="55.15" width="14.42" height="11.09"/></g></g></svg>